inDegrees=no
num_controls=7
num_derivatives=13
num_iterations=97
num_multipliers=7
num_parameters=0
num_slacks=7
num_states=26
objective=0.469941
objective_accelerations=0.064174
objective_balance=0.002073
objective_effort=0.020412
objective_height=0.373632
objective_ligament=0.009651
solver_duration=1296.670080
status=Solve_Succeeded
success=true
DataType=double
version=3
OpenSimVersion=4.5
endheader
time	/jointset/ground_pelvis/pelvis_tilt/value	/jointset/ground_pelvis/pelvis_tx/value	/jointset/ground_pelvis/pelvis_ty/value	/jointset/hip_l/hip_flexion_l/value	/jointset/hip_l/hip_adduction_l/value	/jointset/hip_l/hip_rotation_l/value	/jointset/back/lumbar_extension/value	/jointset/patellofemoral_l/patellar_flexion_l/value	/jointset/knee_l/knee_flexion_l/value	/jointset/knee_l/knee_adduction_l/value	/jointset/knee_l/knee_rotation_l/value	/jointset/ankle_l/ankle_angle_l/value	/jointset/subtalar_l/subtalar_angle_l/value	/jointset/ground_pelvis/pelvis_tilt/speed	/jointset/ground_pelvis/pelvis_tx/speed	/jointset/ground_pelvis/pelvis_ty/speed	/jointset/hip_l/hip_flexion_l/speed	/jointset/hip_l/hip_adduction_l/speed	/jointset/hip_l/hip_rotation_l/speed	/jointset/back/lumbar_extension/speed	/jointset/patellofemoral_l/patellar_flexion_l/speed	/jointset/knee_l/knee_flexion_l/speed	/jointset/knee_l/knee_adduction_l/speed	/jointset/knee_l/knee_rotation_l/speed	/jointset/ankle_l/ankle_angle_l/speed	/jointset/subtalar_l/subtalar_angle_l/speed	/forceset/tau_hip_flexion_l	/forceset/tau_hip_adduction_l	/forceset/tau_hip_rotation_l	/forceset/tau_knee_flexion_l	/forceset/tau_ankle_angle_l	/forceset/tau_subtalar_angle_l	/forceset/tau_lumbar_extension	lambda_cid13_p0	lambda_cid13_p1	lambda_cid13_p2	lambda_cid13_p3	lambda_cid13_p4	lambda_cid13_p5	lambda_cid14_p0	/jointset/ground_pelvis/pelvis_tilt/accel	/jointset/ground_pelvis/pelvis_tx/accel	/jointset/ground_pelvis/pelvis_ty/accel	/jointset/hip_l/hip_flexion_l/accel	/jointset/hip_l/hip_adduction_l/accel	/jointset/hip_l/hip_rotation_l/accel	/jointset/back/lumbar_extension/accel	/jointset/patellofemoral_l/patellar_flexion_l/accel	/jointset/knee_l/knee_flexion_l/accel	/jointset/knee_l/knee_adduction_l/accel	/jointset/knee_l/knee_rotation_l/accel	/jointset/ankle_l/ankle_angle_l/accel	/jointset/subtalar_l/subtalar_angle_l/accel	gamma_cid13_p0	gamma_cid13_p1	gamma_cid13_p2	gamma_cid13_p3	gamma_cid13_p4	gamma_cid13_p5	gamma_cid14_p0
0.5	-0.4182756568327885	-0.06586165911180777	0.7748878760998062	1.191246969035354	-0.3544728214206866	-0.06180857528366171	-0.4068156128716391	0.7154144949866598	0.7154144949865173	-0.05768536013636993	-0.1743836140669646	0.04717688347072918	0.08068463628407273	-1.31171220249414	-0.407293923952677	-0.5067198405724352	2.906818297711719	0.05085939050382213	0.4354833741771895	-0.29491580050134	1.361109081560898	1.361109081560911	0.2265650288963522	0.001251614628824019	-0.129301251034546	0.009363659957784154	-0.1661412920374537	0.008114418251020402	0.006110587897352008	-0.1456416843749194	0.09930547855529838	0.001582859569380775	0.1502967743594836	6.859557361920841	-1.150395422926236	-0.9406926128635699	-8.994185250602413	-434.6604304214372	-60.52392980891648	-14.57695836561676	0.5323848840664539	0.7279381329123796	-0.3935083400096928	-1.745329143311423	0.09929267175143829	-0.4130900339667031	1.584284141117604	-1.043075409584317	-1.043075409584317	-0.4195058869923107	0.05521558975174145	0.03525185101814729	0.1159716508642525	-7.800093587879087e-08	-1.07084526886322e-06	3.262672491068081e-08	-1.960751185700571e-07	-3.893690144616169e-07	3.217008548045584e-07	-2.224572046387452e-07
0.51	-0.4313631918019938	-0.0698975587947519	0.7698023602415075	1.220221974919935	-0.3539606658780365	-0.05747648677880506	-0.4096864625550584	0.7289709197779021	0.7289709197778953	-0.05544248632470944	-0.1743708146997184	0.04588545707965602	0.08078256822969899	-1.30561143976898	-0.399832157000984	-0.5102588994395637	2.887758567806585	0.0515564442134899	0.4309096617628738	-0.279219713130502	1.349962010493973	1.349962010494018	0.2219701813800062	0.001321457033152048	-0.1289684419447173	0.01021153196268976	-0.1733499633920703	0.008961100798583605	0.005638357158014389	-0.1457777430546504	0.1008675710506294	0.002342023369220112	0.1553643950989777	7.1983722521856	-1.409696015977444	-1.047533843014029	-9.362205713258753	-438.5763824888043	-60.60784563884096	-14.02134774479377	0.6763922963603396	0.7633363274792009	-0.3155167057526593	-2.049979853676728	0.05280131784372532	-0.4833821653585106	1.567434492924003	-1.182558834760471	-1.182558834755702	-0.4856245803677223	-0.01509313935371688	0.03458996492409532	0.06767214639734516	-5.816187904325139e-08	-1.107324129611637e-06	-1.727945307560749e-07	-2.222193853169111e-07	-3.308877846249302e-07	3.041948064754236e-07	-2.024581545820398e-07
0.52	-0.4443842250780314	-0.07385723273794267	0.7646851713853997	1.248993646517553	-0.3534419618788354	-0.05319090946212399	-0.4123993186731988	0.7424094666825753	0.7424094666826947	-0.05324679106753739	-0.1743569092494354	0.04459781768487242	0.08088867432959307	-1.298411863859024	-0.3920487760020051	-0.5130544401342365	2.866151440318967	0.05216908181392309	0.4261811365407781	-0.2633170874453757	1.337533504246487	1.337533504246563	0.2171293180071848	0.001472831232397787	-0.1285438517765385	0.01099849081134048	-0.1805586347466463	0.009807783346183234	0.005166126418511626	-0.1459138017343821	0.1024296635459624	0.003101187169098655	0.1604320158385063	7.537286334789912	-1.669575017650745	-1.153642129981484	-9.736481451325384	-442.4919846619785	-60.72714178692306	-13.46923214118657	0.7521475210257877	0.7922609423695006	-0.2448047055185851	-2.254808659808225	0.08240944990449532	-0.444052595522736	1.625591803975273	-1.299362445696626	-1.299362445696634	-0.4687090582873578	0.07152194873524957	0.05360806668805373	0.1037890196132427	-1.661275470707228e-08	-1.268243954656772e-06	-6.379367103370573e-07	-2.873772244029782e-07	-2.236520802985415e-07	2.456083302923166e-07	-1.665160263904548e-07
0.53	-0.4573281245377961	-0.07773761969698624	0.759543748959505	1.277537160137453	-0.3529170467534816	-0.04895567793859217	-0.4149522562609272	0.7557175105568611	0.7557175105570397	-0.05109831253662239	-0.1743424703268286	0.04331495051654975	0.08100292932351882	-1.290201109894071	-0.3839878126076852	-0.5151026356788021	2.842150788872152	0.05280149469493507	0.4207943858102924	-0.2472696423155301	1.323857303200431	1.323857303200444	0.2125651848467583	0.001399526762605235	-0.1280248041288375	0.01184165364092504	-0.1876060243838636	0.01053121857720207	0.00462988106311714	-0.1461740511210664	0.1040318696933802	0.003794231252253191	0.1652932487077911	7.880207999000837	-1.898872305844165	-1.267558454246151	-10.03846823310941	-446.4363444561253	-60.8088704268532	-12.92080214990466	0.8805504922621353	0.8190701973709971	-0.1657490393304679	-2.532794880587317	0.05212414629238142	-0.5966977142387627	1.594439035247437	-1.434414518316142	-1.434414518325454	-0.4507583506349827	-0.04918142917877059	0.05170868386708915	0.07327132097815436	-2.973372453129944e-08	-1.08688041057375e-06	-4.053271210949249e-07	-2.451234356093316e-07	-2.278450324246993e-07	2.864479819159252e-07	-1.690771691660443e-07
0.54	-0.4701849142263132	-0.08153618579020484	0.7543856601660839	1.30582864694419	-0.3523861141114993	-0.04477645620284869	-0.4173446957638065	0.76888225930385	0.7688822593040719	-0.04899557391837312	-0.1743292494058296	0.04203740493871497	0.08112535422700984	-1.280989909607819	-0.3756846028370137	-0.5163877136395827	2.815746077686585	0.05337258513966221	0.4149791789827101	-0.231217470475351	1.308874478784128	1.308874478784079	0.2079813354577426	0.001229230919126086	-0.1274795336789022	0.01263247272439283	-0.19465341402105	0.01125465380823154	0.0040936357080897	-0.1464343005077663	0.1056340758407898	0.004487275335414095	0.1701544815771061	8.222121792239777	-2.12801258279568	-1.38147819404833	-10.339079994914	-450.3966376679172	-60.90559187905438	-12.37644109961785	0.9522367852855246	0.8407102176397996	-0.09218118876161088	-2.735620607558611	0.07014496264752575	-0.5297438149420516	1.626537146042019	-1.560687119745873	-1.560687119745864	-0.4726523040051981	0.05212367399789779	0.05885262713485899	0.0933202703898616	-1.033407559798066e-07	-5.26820372987234e-07	5.992631485472586e-07	-8.403125001259617e-08	-3.553207533919738e-07	4.372910089852628e-07	-2.142376755648913e-07
0.55	-0.4829446430579935	-0.08525059614217252	0.7492185162681897	1.333844261292338	-0.3518504357111417	-0.04065316561186507	-0.4195767151528913	0.7818907685468005	0.7818907685468292	-0.04694247339141995	-0.174315432645228	0.04076528873730248	0.08125463685784677	-1.270791981506497	-0.3671662226294729	-0.5169143542746137	2.787001928816598	0.05376064724411254	0.4095638800366965	-0.2152000744807664	1.292636248281371	1.292636248281364	0.2026879832045071	0.001483289738989444	-0.1269301946533456	0.01322701133861645	-0.201692259764167	0.01188344544728188	0.003515833938495889	-0.1465618430575195	0.1069958111114979	0.005149828364142281	0.1749329336115951	8.484957420944889	-2.336875536823776	-1.490850777348224	-10.54168110351579	-454.3192093034501	-60.9492998761843	-11.8365443828355	1.078120356960824	0.8620894287049249	-0.01398372180337689	-3.000081681011988	0.0226966973658307	-0.5648901449874012	1.587290755316059	-1.684011469795317	-1.684011469788853	-0.5503239255854119	0.004663185487698823	0.05499619608495813	0.04286390220128703	-1.44932186533464e-07	-1.627916227311845e-07	1.208105983408747e-06	1.723237103859013e-08	-4.174720987700856e-07	5.297919782462575e-07	-2.364354656078031e-07
0.5600000000000001	-0.4955974827017868	-0.08887888519078586	0.7440498903197591	1.361561180220928	-0.3513109647171341	-0.03658752145244776	-0.4216489705962009	0.7947311713938561	0.7947311713937223	-0.04494083583489461	-0.1743005520565436	0.03949907025730895	0.08138993352387845	-1.259612072028951	-0.3584603421661461	-0.5166841237468389	2.75600699377489	0.05413110386944102	0.4034498926684256	-0.1992646813202027	1.275253199608423	1.275253199608459	0.1976887413671659	0.001441996539141551	-0.1262999893950369	0.01383527976334737	-0.2087311055072373	0.01251223708636311	0.002938032169043167	-0.1466893856072817	0.1083575463822017	0.005812381392898071	0.1797113856461288	8.747679557401886	-2.547012802808706	-1.598541654134408	-10.76406521003376	-458.2546133445493	-61.04886054563405	-11.30164238826327	1.148633060530507	0.8782102687969581	0.05919304379955686	-3.185777841902862	0.06662386682314361	-0.6694814993935081	1.610136579237873	-1.789650753784029	-1.789650753784076	-0.413830220826331	-0.006946729944375285	0.07502587368520916	0.09606623249130462	-1.481048960133031e-07	-3.400041727168787e-08	1.342051896533415e-06	4.670171463511977e-08	-4.012341934412046e-07	5.52282478137243e-07	-2.310779960235935e-07
0.5700000000000001	-0.5081338485083451	-0.09241927124338234	0.7388873220248703	1.388957306192999	-0.3507679676774698	-0.03258491673278009	-0.4235624246485203	0.8073921563688848	0.807392156368875	-0.04298876952753958	-0.1742864357555703	0.03823952930424757	0.08153126069905169	-1.247506702330701	-0.349593710682368	-0.5157033107265817	2.72286041574811	0.05445340431980453	0.3970229352222161	-0.1834694416633642	1.256758361121881	1.256758361121895	0.1927146969196012	0.001371808268464879	-0.1255992910992968	0.01441791966633183	-0.2155233030613035	0.01295051403975527	0.002402079358718676	-0.1469679559659946	0.1098455377569292	0.00631859614889072	0.1842337806675452	9.044810978151569	-2.692063618284203	-1.720280137907056	-10.95046706602151	-462.0881210706278	-61.0554030955228	-10.77233591019979	1.264618111479691	0.8943759129562047	0.1363806969386101	-3.43280264640898	0.0126499186947644	-0.6367219397233109	1.557720780960197	-1.907169927689479	-1.907169927692643	-0.5406356166919172	-0.008189558112464409	0.06893598341363869	0.03735355341625748	-1.470920005725115e-07	5.457980070426826e-08	1.407626810440765e-06	6.588379959605907e-08	-3.769310523305544e-07	5.636564192503123e-07	-2.231625604344858e-07
0.58	-0.520544534780526	-0.09587029371618327	0.733738332913344	1.416011225412136	-0.3502222242763902	-0.0286480654020681	-0.4253192256798607	0.8198626390527171	0.8198626390528487	-0.04108673247664974	-0.1742732482738057	0.03698726416932237	0.08167801241009758	-1.23447616515214	-0.340587626207036	-0.5139682870743405	2.687565643187609	0.0546803761522377	0.3902992148764604	-0.1679340771243881	1.237152741371328	1.23715274137132	0.1876828900732231	0.001256232698464518	-0.1248448257677512	0.01492018693788624	-0.222315500615321	0.01338879099317358	0.001866126548441215	-0.1472465263247159	0.1113335291316517	0.006824810904908692	0.1887561756890102	9.341110096297616	-2.838783498569003	-1.83967908475869	-11.15894691051384	-465.9491317228444	-61.12250790195102	-10.24931171869785	1.333666556592826	0.9061008671076977	0.210035170196359	-3.615416748646656	0.04755814323706198	-0.7288340793027699	1.55816155566541	-2.011807006586145	-2.011807006586213	-0.4253827005890145	-0.01602418980913401	0.0857792808462591	0.07999170620527896	-1.406280847699686e-07	9.079222102724274e-08	1.384160423041842e-06	7.166852447343922e-08	-3.421243483413217e-07	5.605529814898168e-07	-2.119158202808596e-07
